<svg width="35" height="35" viewBox="0 0 35 35" fill="none" xmlns="http://www.w3.org/2000/svg">
<circle cx="17.5" cy="17.5" r="17.5" fill="#F3F3F5"/>
<path d="M17.9552 29.4103C24.5578 29.4103 29.9103 24.0578 29.9103 17.4552C29.9103 10.8525 24.5578 5.5 17.9552 5.5C11.3525 5.5 6 10.8525 6 17.4552C6 24.0578 11.3525 29.4103 17.9552 29.4103Z" stroke="#4A3697" stroke-miterlimit="10"/>
<path d="M17.9563 25.733C22.5274 25.733 26.233 22.0274 26.233 17.4563C26.233 12.8853 22.5274 9.17969 17.9563 9.17969C13.3853 9.17969 9.67969 12.8853 9.67969 17.4563C9.67969 22.0274 13.3853 25.733 17.9563 25.733Z" stroke="#4A3697" stroke-miterlimit="10"/>
<path d="M12.8986 17.5086C12.8775 14.6088 15.0613 12.4194 17.9982 12.3985C20.682 12.3807 22.9682 14.6192 23.0134 17.3254C23.0676 20.1552 20.7663 22.5128 17.95 22.5143C15.1336 22.5158 12.9197 20.322 12.8986 17.5086Z" fill="#4A3697"/>
</svg>
